<svg width="80" height="80" viewBox="0 0 80 80" fill="none" xmlns="http://www.w3.org/2000/svg">
<rect x="1" y="1" width="78" height="78" rx="39" fill="#E0DDD6"/>
<rect x="1" y="1" width="78" height="78" rx="39" stroke="#333333" stroke-width="2"/>
<g clip-path="url(#clip0_2_110)">
<path fill-rule="evenodd" clip-rule="evenodd" d="M34.9859 41.5625H39.7894C38.9625 38.75 38.1481 36.15 37.3469 33.5075C36.5694 36.1594 35.7806 38.75 34.9859 41.5625ZM58.785 20.3125H20.8978C20.2147 20.3125 20.3125 20.4613 20.3125 21.1203V59.0559C20.3125 59.7144 20.2147 59.6875 20.8497 59.6875H58.8331C59.4678 59.6875 59.6875 59.7144 59.6875 59.0556V21.1684C59.6875 20.4613 59.4681 20.3125 58.785 20.3125ZM44.1556 50C43.6441 50 43.1306 49.9584 42.6216 49.995C42.2544 50.0225 42.1316 49.8681 42.0337 49.5494C41.5606 48.0084 41.0578 46.4681 40.5844 44.9275C40.4891 44.6175 40.3528 44.5044 40.0169 44.5084C38.2909 44.5284 36.5641 44.5266 34.8378 44.5062C34.4744 44.5019 34.3072 44.5988 34.2034 44.9594C33.7641 46.4919 33.2834 48.0119 32.8394 49.5428C32.7431 49.8747 32.5969 49.9906 32.2444 49.9816C31.2075 49.9556 30.1691 49.9716 29.0337 49.9716C29.3334 49.02 29.6053 48.14 29.8866 47.2638C31.6097 41.8888 33.3387 36.5138 35.0494 31.1353C35.1687 30.7609 35.3347 30.6456 35.7191 30.6541C36.9334 30.6809 38.1487 30.6609 39.3637 30.6541C39.5909 30.6525 39.7459 30.6659 39.8291 30.9241C41.8619 37.2103 43.9019 43.5353 45.94 49.8209C45.9487 49.8494 45.9431 50 45.9478 50H44.1556ZM50.625 50H46.875V35.9375H50.625V50ZM48.6406 34.0403C47.4953 34.0388 46.6753 33.2503 46.6675 32.1434C46.66 31.0397 47.5134 30.2188 48.6694 30.2175C49.8344 30.2162 50.6553 31.0103 50.6644 32.1459C50.6725 33.2537 49.8309 34.0422 48.6406 34.0403Z" fill="#333333"/>
</g>
<defs>
<clipPath id="clip0_2_110">
<rect width="40" height="40" fill="white" transform="translate(20 20)"/>
</clipPath>
</defs>
</svg>
