<svg width="80" height="80" viewBox="0 0 80 80" fill="none" xmlns="http://www.w3.org/2000/svg">
<rect x="1" y="1" width="78" height="78" rx="39" fill="#E0DDD6"/>
<rect x="1" y="1" width="78" height="78" rx="39" stroke="#333333" stroke-width="2"/>
<path d="M39.5 28C34.0333 28 30.6167 30.6667 29.25 36C31.3 33.3333 33.6917 32.3333 36.425 33C37.9847 33.38 39.0985 34.4833 40.3337 35.7067C42.3444 37.6967 44.6694 40 49.75 40C55.2167 40 58.6333 37.3333 60 32C57.95 34.6667 55.5583 35.6667 52.825 35C51.2653 34.62 50.1515 33.5167 48.9163 32.2933C46.9073 30.3033 44.5823 28 39.5 28ZM29.25 40C23.7833 40 20.3667 42.6667 19 48C21.05 45.3333 23.4417 44.3333 26.175 45C27.7347 45.38 28.8485 46.4833 30.0837 47.7067C32.0944 49.6967 34.4194 52 39.5 52C44.9667 52 48.3833 49.3333 49.75 44C47.7 46.6667 45.3083 47.6667 42.575 47C41.0153 46.62 39.9015 45.5167 38.6663 44.2933C36.6573 42.3033 34.3323 40 29.25 40Z" fill="#333333"/>
</svg>
