<svg width="48" height="48" viewBox="0 0 48 48" fill="none" xmlns="http://www.w3.org/2000/svg">
<circle cx="24" cy="24" r="24" fill="#CADD57"/>
<path d="M23.5875 29.632C22.9955 30.5632 22.4275 31.4742 21.1547 32.3592C20.4739 32.8368 18.9069 33.7699 16.6795 33.7699C12.43 33.7699 9 30.678 9 25.2421C9 20.4913 12.2265 16.7384 16.7701 16.7384C18.6109 16.7384 20.2464 17.3752 21.4508 18.3306C22.5645 19.2174 23.0861 20.1044 23.5413 20.9005L20.361 22.4908C20.1335 21.9687 19.8596 21.4225 19.1566 20.8319C18.3834 20.2172 17.6119 20.0358 16.9514 20.0358C14.3614 20.0358 12.9979 22.4465 12.9979 25.1292C12.9979 28.6544 14.7943 30.404 16.9514 30.404C19.0419 30.404 19.8836 28.9487 20.4276 28.0175L23.5875 29.632ZM34.7283 17.2383H39L33.4332 33.2923H29.3447L23.8465 17.2383H28.1182L31.4353 28.6544L34.7283 17.2383Z" fill="#333333"/>
</svg>
