<svg width="80" height="80" viewBox="0 0 80 80" fill="none" xmlns="http://www.w3.org/2000/svg">
<rect x="1" y="1" width="78" height="78" rx="39" fill="#E0DDD6"/>
<rect x="1" y="1" width="78" height="78" rx="39" stroke="#333333" stroke-width="2"/>
<path opacity="0.6" d="M39.334 20H32.666C30.8978 20 29.202 20.7024 27.9517 21.9527C26.7014 23.203 25.999 24.8988 25.999 26.667C25.999 28.4352 26.7014 30.131 27.9517 31.3813C29.202 32.6316 30.8978 33.334 32.666 33.334H39.334V20Z" fill="#333333"/>
<path opacity="0.4" d="M39.334 33.334H32.666C30.8981 33.334 29.2025 34.0363 27.9524 35.2864C26.7023 36.5365 26 38.2321 26 40C26 41.7679 26.7023 43.4634 27.9524 44.7136C29.2025 45.9637 30.8981 46.666 32.666 46.666H39.334V33.334Z" fill="#333333"/>
<path d="M52.666 40C52.666 41.7682 51.9636 43.464 50.7133 44.7143C49.463 45.9646 47.7672 46.667 45.999 46.667C44.2308 46.667 42.5351 45.9646 41.2847 44.7143C40.0344 43.464 39.332 41.7682 39.332 40C39.332 38.2318 40.0344 36.536 41.2847 35.2857C42.5351 34.0354 44.2308 33.333 45.999 33.333C47.7672 33.333 49.463 34.0354 50.7133 35.2857C51.9636 36.536 52.666 38.2318 52.666 40Z" fill="#333333"/>
<path opacity="0.2" d="M32.666 46.668H39.334V53.334C39.3336 54.6523 38.9423 55.9408 38.2097 57.0367C37.4771 58.1326 36.436 58.9867 35.218 59.491C34 59.9953 32.6599 60.1271 31.367 59.8698C30.0741 59.6126 28.8865 58.9777 27.9544 58.0456C27.0222 57.1135 26.3874 55.9259 26.1301 54.633C25.8729 53.3401 26.0047 51.9999 26.509 50.782C27.0133 49.564 27.8674 48.5229 28.9633 47.7903C30.0592 47.0577 31.3477 46.6684 32.666 46.668Z" fill="#333333"/>
<path opacity="0.8" d="M39.332 20H45.998C47.7662 20 49.462 20.7024 50.7123 21.9527C51.9626 23.203 52.665 24.8988 52.665 26.667C52.665 28.4352 51.9626 30.131 50.7123 31.3813C49.462 32.6316 47.7662 33.334 45.998 33.334H39.332V20Z" fill="#333333"/>
</svg>
