<svg width="80" height="80" viewBox="0 0 80 80" fill="none" xmlns="http://www.w3.org/2000/svg">
<rect x="1" y="1" width="78" height="78" rx="39" fill="#E0DDD6"/>
<rect x="1" y="1" width="78" height="78" rx="39" stroke="#333333" stroke-width="2"/>
<path d="M61.1482 37.9947L41.4997 18.349C41.2307 18.0798 40.9113 17.8663 40.5597 17.7207C40.2082 17.575 39.8313 17.5 39.4508 17.5C39.0702 17.5 38.6934 17.575 38.3418 17.7207C37.9903 17.8663 37.6709 18.0798 37.4018 18.349L33.3236 22.4272L38.4987 27.6023C39.1091 27.3939 39.7657 27.3613 40.3937 27.5082C41.0216 27.6551 41.5957 27.9756 42.0502 28.4331C42.5048 28.8906 42.8216 29.4667 42.9645 30.0956C43.1073 30.7245 43.0705 31.3809 42.8582 31.9899L47.8448 36.9793C48.5826 36.7196 49.3868 36.7188 50.1251 36.9771C50.8634 37.2354 51.4917 37.7374 51.9065 38.4005C52.3214 39.0636 52.4981 39.8482 52.4076 40.6251C52.317 41.402 51.9646 42.1249 51.4083 42.6747C50.8452 43.2413 50.1029 43.5948 49.3081 43.6748C48.5133 43.7548 47.7154 43.5564 47.0506 43.1135C46.3858 42.6705 45.8955 42.0105 45.6633 41.2462C45.4311 40.4819 45.4715 39.6606 45.7776 38.9228L41.1285 34.2708V46.5139C41.8351 46.8637 42.4006 47.4451 42.7305 48.1613C43.0605 48.8774 43.135 49.685 42.9417 50.4495C42.7484 51.2139 42.299 51.889 41.6683 52.3623C41.0376 52.8355 40.2637 53.0783 39.4757 53.0502C38.6877 53.022 37.9331 52.7246 37.3378 52.2076C36.7424 51.6906 36.3423 50.9851 36.204 50.2088C36.0657 49.4326 36.1977 48.6323 36.5779 47.9415C36.9581 47.2507 37.5636 46.7111 38.2934 46.4126V34.0571C37.8723 33.8845 37.4896 33.6304 37.1672 33.3092C36.8448 32.9881 36.5892 32.6063 36.4151 32.1858C36.241 31.7654 36.1518 31.3147 36.1527 30.8597C36.1535 30.4046 36.2445 29.9542 36.4203 29.5345L31.3211 24.4325L17.849 37.9047C17.5798 38.1737 17.3663 38.4931 17.2207 38.8447C17.075 39.1962 17 39.573 17 39.9536C17 40.3341 17.075 40.711 17.2207 41.0625C17.3663 41.4141 17.5798 41.7335 17.849 42.0025L37.4975 61.651C37.7665 61.9202 38.0859 62.1337 38.4375 62.2794C38.789 62.425 39.1659 62.5 39.5464 62.5C39.927 62.5 40.3038 62.425 40.6553 62.2794C41.0069 62.1337 41.3263 61.9202 41.5954 61.651L61.151 42.0954C61.4202 41.8263 61.6337 41.5069 61.7793 41.1553C61.925 40.8038 62 40.427 62 40.0464C62 39.6659 61.925 39.289 61.7793 38.9375C61.6337 38.5859 61.4202 38.2665 61.151 37.9975" fill="#333333"/>
</svg>
