<svg width="48" height="48" viewBox="0 0 48 48" fill="none" xmlns="http://www.w3.org/2000/svg">
<circle cx="24" cy="24" r="24" fill="#CADD57"/>
<path d="M24 11.731C22.2928 11.731 20.6023 12.063 19.0251 12.7079C17.4479 13.3529 16.0148 14.2983 14.8076 15.49C12.3696 17.8969 11 21.1613 11 24.5651C11 30.2378 14.731 35.0506 19.892 36.7575C20.542 36.8602 20.75 36.4623 20.75 36.1158V33.9468C17.149 34.7169 16.382 32.2271 16.382 32.2271C15.784 30.7383 14.939 30.3404 14.939 30.3404C13.756 29.5447 15.03 29.5704 15.03 29.5704C16.33 29.6602 17.019 30.8923 17.019 30.8923C18.15 32.8431 20.061 32.2656 20.802 31.9575C20.919 31.1233 21.257 30.5586 21.621 30.2378C18.735 29.9169 15.706 28.8132 15.706 23.9234C15.706 22.4988 16.2 21.3566 17.045 20.4453C16.915 20.1245 16.46 18.7897 17.175 17.0571C17.175 17.0571 18.267 16.7106 20.75 18.3662C21.777 18.0839 22.895 17.9427 24 17.9427C25.105 17.9427 26.223 18.0839 27.25 18.3662C29.733 16.7106 30.825 17.0571 30.825 17.0571C31.54 18.7897 31.085 20.1245 30.955 20.4453C31.8 21.3566 32.294 22.4988 32.294 23.9234C32.294 28.826 29.252 29.9041 26.353 30.2249C26.821 30.6228 27.25 31.4057 27.25 32.5992V36.1158C27.25 36.4623 27.458 36.873 28.121 36.7575C33.282 35.0377 37 30.2378 37 24.5651C37 22.8797 36.6637 21.2108 36.0104 19.6537C35.3571 18.0966 34.3995 16.6818 33.1924 15.49C31.9852 14.2983 30.5521 13.3529 28.9749 12.7079C27.3977 12.063 25.7072 11.731 24 11.731Z" fill="#333333"/>
</svg>
