<svg width="80" height="80" viewBox="0 0 80 80" fill="none" xmlns="http://www.w3.org/2000/svg">
<rect x="1" y="1" width="78" height="78" rx="39" fill="#E0DDD6"/>
<rect x="1" y="1" width="78" height="78" rx="39" stroke="#333333" stroke-width="2"/>
<g clip-path="url(#clip0_2_106)">
<mask id="mask0_2_106" style="mask-type:luminance" maskUnits="userSpaceOnUse" x="20" y="20" width="40" height="40">
<path d="M20 20H60V60H20V20Z" fill="white"/>
</mask>
<g mask="url(#mask0_2_106)">
<path fill-rule="evenodd" clip-rule="evenodd" d="M20 20H60V60H20V20ZM50.5783 53.5333C48.7233 53.5333 47.675 52.5667 46.87 51.25L43.815 53.025C44.9183 55.205 47.1733 56.8683 50.665 56.8683C54.235 56.8683 56.8933 55.015 56.8933 51.63C56.8933 48.4917 55.09 47.0967 51.8967 45.725L50.9567 45.3233C49.3433 44.6233 48.645 44.1683 48.645 43.04C48.645 42.1283 49.345 41.43 50.445 41.43C51.5233 41.43 52.2183 41.885 52.8633 43.04L55.79 41.1617C54.5517 38.9833 52.835 38.1517 50.445 38.1517C47.0883 38.1517 44.94 40.2983 44.94 43.1183C44.94 46.1767 46.74 47.625 49.4533 48.78L50.3933 49.1833C52.1083 49.9333 53.13 50.39 53.13 51.6783C53.13 52.755 52.135 53.5333 50.5783 53.5333ZM36.0117 53.5083C34.72 53.5083 34.1817 52.625 33.5917 51.575L30.5317 53.4283C31.4183 55.305 33.1617 56.8617 36.17 56.8617C39.5017 56.8617 41.7833 55.09 41.7833 51.1983V38.365H38.025V51.1483C38.025 53.0267 37.245 53.5083 36.01 53.5083" fill="#333333"/>
</g>
</g>
<defs>
<clipPath id="clip0_2_106">
<rect width="40" height="40" fill="white" transform="translate(20 20)"/>
</clipPath>
</defs>
</svg>
