<svg width="80" height="80" viewBox="0 0 80 80" fill="none" xmlns="http://www.w3.org/2000/svg">
<rect x="1" y="1" width="78" height="78" rx="39" fill="#E0DDD6"/>
<rect x="1" y="1" width="78" height="78" rx="39" stroke="#333333" stroke-width="2"/>
<path d="M39.6878 55.9609C39.5106 55.9609 39.3334 55.9105 39.1731 55.8266L37.5531 54.8691C37.3084 54.7348 37.4266 54.6844 37.5109 54.6592C37.8316 54.55 37.8991 54.5248 38.245 54.3232C38.2788 54.3064 38.3294 54.3148 38.3631 54.3316L39.6119 55.0707C39.6541 55.0959 39.7216 55.0959 39.7638 55.0707L44.6406 52.2656C44.6828 52.2404 44.7166 52.19 44.7166 52.1313V46.5295C44.7166 46.4707 44.6912 46.4203 44.6406 46.3951L39.7638 43.5984C39.7216 43.5732 39.6625 43.5732 39.6119 43.5984L34.735 46.3951C34.6844 46.4203 34.6591 46.4791 34.6591 46.5295V52.1313C34.6591 52.1816 34.6928 52.232 34.735 52.2572L36.0681 53.0215C36.7938 53.3826 37.2409 52.9543 37.2409 52.5344V46.9998C37.2409 46.9242 37.3 46.857 37.3844 46.857H38.0003C38.0763 46.857 38.1438 46.9158 38.1438 46.9998V52.5344C38.1438 53.5002 37.6206 54.0461 36.7009 54.0461C36.4225 54.0461 36.1947 54.0461 35.5788 53.7438L34.2962 53.0131C33.9841 52.8283 33.7816 52.4924 33.7816 52.1313V46.5295C33.7816 46.1684 33.9756 45.824 34.2962 45.6477L39.1731 42.8426C39.4853 42.6662 39.8903 42.6662 40.1941 42.8426L45.0709 45.6477C45.3831 45.8324 45.5856 46.1684 45.5856 46.5295V52.1313C45.5856 52.4924 45.3916 52.8367 45.0709 53.0131L40.1941 55.8182C40.0506 55.9105 39.8734 55.9609 39.6878 55.9609ZM43.6281 50.4348C43.6281 49.385 42.9194 49.1078 41.4175 48.9063C39.8988 48.7047 39.7469 48.6039 39.7469 48.2512C39.7469 47.9572 39.8734 47.5709 40.9956 47.5709C41.9997 47.5709 42.3709 47.7893 42.5228 48.4611C42.5397 48.5283 42.5903 48.5703 42.6578 48.5703H43.2906C43.3328 48.5703 43.3666 48.5535 43.3919 48.5283C43.4172 48.4947 43.4341 48.4611 43.4256 48.4191C43.3244 47.2602 42.5566 46.7227 40.9956 46.7227C39.6034 46.7227 38.7766 47.3106 38.7766 48.2848C38.7766 49.3514 39.6034 49.6369 40.9366 49.7713C42.5313 49.9309 42.6578 50.1576 42.6578 50.4684C42.6578 51.0143 42.2191 51.241 41.1897 51.241C39.8988 51.241 39.6119 50.9219 39.5191 50.2836C39.5106 50.2164 39.4516 50.166 39.3756 50.166H38.7428C38.6669 50.166 38.5994 50.2248 38.5994 50.3088C38.5994 51.1234 39.0466 52.0977 41.1812 52.0977C42.7422 52.0977 43.6281 51.493 43.6281 50.4348ZM48.2266 46.2272C48.2266 46.7395 47.8047 47.1594 47.29 47.1594C46.7753 47.1594 46.3534 46.7395 46.3534 46.2272C46.3534 45.698 46.7922 45.2949 47.29 45.2949C47.7962 45.2865 48.2266 45.698 48.2266 46.2272ZM48.0747 46.2272C48.0747 45.7904 47.7203 45.4461 47.2816 45.4461C46.8512 45.4461 46.4969 45.7904 46.4969 46.2272C46.4969 46.6639 46.8512 47.0166 47.2816 47.0166C47.7203 47.0082 48.0747 46.6555 48.0747 46.2272ZM47.695 46.7479H47.4756C47.4672 46.6975 47.4334 46.4287 47.4334 46.4203C47.4166 46.3615 47.3997 46.3279 47.3237 46.3279H47.1381V46.7479H46.9356V45.698H47.2984C47.425 45.698 47.6697 45.698 47.6697 45.9752C47.6697 46.1684 47.5431 46.2104 47.4672 46.2355C47.6106 46.2439 47.6191 46.3363 47.6444 46.4707C47.6528 46.5547 47.6697 46.6975 47.695 46.7479ZM47.4588 46.0088C47.4588 45.866 47.3575 45.866 47.3069 45.866H47.1381V46.16H47.2984C47.4334 46.16 47.4588 46.0676 47.4588 46.0088ZM24.5847 34.041C24.5847 33.8143 24.4666 33.6127 24.2725 33.5035L19.1003 30.5389C19.0159 30.4885 18.9147 30.4633 18.8134 30.4549H18.7628C18.6616 30.4549 18.5688 30.4885 18.4759 30.5389L13.3122 33.5035C13.1181 33.6127 13 33.8227 13 34.041L13.0084 42.0195C13.0084 42.1287 13.0675 42.2295 13.1603 42.2883C13.2531 42.3471 13.3713 42.3471 13.4725 42.2883L16.5438 40.533C16.7378 40.4154 16.8559 40.2139 16.8559 39.9955V36.2666C16.8559 36.0482 16.9741 35.8383 17.1681 35.7291L18.4759 34.9816C18.5772 34.9229 18.6784 34.8977 18.7881 34.8977C18.8978 34.8977 19.0075 34.9229 19.1003 34.9816L20.4081 35.7291C20.6022 35.8383 20.7203 36.0482 20.7203 36.2666V39.9955C20.7203 40.2139 20.8384 40.4238 21.0325 40.533L24.1038 42.2883C24.1966 42.3471 24.3231 42.3471 24.4159 42.2883C24.5088 42.2379 24.5678 42.1287 24.5678 42.0195L24.5847 34.041ZM52.8672 25.3318V40.1467C52.8672 40.365 52.7491 40.575 52.555 40.6842L47.3828 43.6572C47.1888 43.7664 46.9525 43.7664 46.7584 43.6572L41.5863 40.6842C41.3922 40.575 41.2741 40.365 41.2741 40.1467V34.2006C41.2741 33.9822 41.3922 33.7723 41.5863 33.6631L46.7584 30.69C46.9525 30.5809 47.1888 30.5809 47.3828 30.69L48.6737 31.4291C48.8172 31.5131 49.0028 31.4039 49.0028 31.2443V23.3498C49.0028 23.1146 49.2559 22.9635 49.4669 23.0811L52.5466 24.7943C52.7406 24.8951 52.8672 25.1051 52.8672 25.3318ZM48.9859 36.1574C48.9859 36.0986 48.9522 36.0482 48.91 36.023L47.1381 34.9984C47.0875 34.9732 47.0284 34.9732 46.9778 34.9984L45.2059 36.023C45.1553 36.0482 45.13 36.0986 45.13 36.1574V38.1982C45.13 38.257 45.1637 38.3074 45.2059 38.3326L46.9778 39.3488C47.0284 39.374 47.0875 39.374 47.1297 39.3488L48.9016 38.3326C48.9522 38.3074 48.9775 38.257 48.9775 38.1982V36.1574H48.9859ZM66.6878 36.0986C66.8819 35.9895 67 35.7795 67 35.5611V34.125C67 33.9066 66.8819 33.6967 66.6878 33.5875L61.5494 30.6145C61.3553 30.5053 61.1191 30.5053 60.925 30.6145L55.7528 33.5875C55.5588 33.6967 55.4406 33.9066 55.4406 34.125V40.0711C55.4406 40.2979 55.5588 40.4994 55.7528 40.6086L60.8913 43.5229C61.0769 43.632 61.3131 43.632 61.5072 43.5229L64.6122 41.8012C64.8231 41.6836 64.8231 41.3813 64.6122 41.2637L59.4062 38.2906C59.305 38.2318 59.2459 38.1311 59.2459 38.0219V36.1574C59.2459 36.0482 59.305 35.9475 59.4062 35.8887L61.0263 34.9564C61.1191 34.8977 61.2456 34.8977 61.3384 34.9564L62.9584 35.8887C63.0513 35.9475 63.1188 36.0482 63.1188 36.1574V37.6188C63.1188 37.8539 63.3803 38.0051 63.5912 37.8875L66.6878 36.0986ZM60.1656 36.3926C60.1319 36.4178 60.1066 36.4514 60.1066 36.4934V37.6355C60.1066 37.6775 60.1319 37.7195 60.1656 37.7363L61.1613 38.3074C61.195 38.3326 61.2456 38.3326 61.2794 38.3074L62.275 37.7363C62.3088 37.7111 62.3341 37.6775 62.3341 37.6355V36.4934C62.3341 36.4514 62.3088 36.4094 62.275 36.3926L61.2794 35.8215C61.2456 35.7963 61.195 35.7963 61.1613 35.8215L60.1656 36.3926ZM38.7175 40.0459V34.1334C38.7175 33.915 38.5825 33.7051 38.3884 33.5959L33.2331 30.6396C33.0559 30.5389 32.8113 30.5221 32.6087 30.6396L27.4534 33.5959C27.2594 33.7051 27.1244 33.9066 27.1244 34.1334V40.0459C27.1244 40.2811 27.2847 40.4826 27.4619 40.5834L32.6256 43.5397C32.8281 43.6572 33.0644 43.6488 33.25 43.5397L38.3969 40.5834C38.5487 40.4994 38.6584 40.3566 38.7006 40.1887C38.7091 40.1467 38.7175 40.0963 38.7175 40.0459ZM32.4484 29.5563L32.3809 29.5982H32.4738L32.4484 29.5563ZM38.8778 40.491L38.8441 40.4322V40.5078L38.8778 40.491Z" fill="#333333"/>
</svg>
