<svg width="80" height="80" viewBox="0 0 80 80" fill="none" xmlns="http://www.w3.org/2000/svg">
<rect x="1" y="1" width="78" height="78" rx="39" fill="#E0DDD6"/>
<rect x="1" y="1" width="78" height="78" rx="39" stroke="#333333" stroke-width="2"/>
<path d="M28.8963 36.1899H26.8903L25.7959 41.8169H27.5766C28.7581 41.8169 29.6379 41.5945 30.2159 41.1496C30.7939 40.7034 31.1835 39.9603 31.3846 38.9205C31.5787 37.9218 31.4909 37.217 31.1211 36.8061C30.75 36.3953 30.0083 36.1899 28.8963 36.1899ZM39.5 26.587C25.4176 26.587 14 32.5923 14 40C14 47.4078 25.4176 53.4151 39.5 53.4151C53.5824 53.4151 65 47.4078 65 40C65 32.5923 53.5824 26.587 39.5 26.587ZM32.5725 42.4204C32.0179 42.9516 31.3506 43.3511 30.6239 43.5913C29.9085 43.8222 28.9983 43.9383 27.8933 43.9398H25.3836L24.6888 47.5119H21.7605L24.3743 34.0691H30.0055C31.6984 34.0691 32.9338 34.514 33.7115 35.4036C34.4893 36.2919 34.723 37.5329 34.4128 39.1266C34.2952 39.7576 34.0763 40.3654 33.7646 40.9265C33.46 41.4691 33.0627 41.967 32.5725 42.4204ZM41.1235 43.9398L42.2774 37.9919C42.4105 37.3147 42.3624 36.8536 42.1329 36.6085C41.9062 36.362 41.4196 36.2388 40.673 36.2388H38.3525L36.8565 43.9419H33.9495L36.5632 30.497H39.4681L38.7733 34.0713H41.3615C42.9907 34.0713 44.1141 34.3553 44.7318 34.9234C45.6582 35.7755 45.535 36.4109 45.2906 37.6838L44.0751 43.9398H41.1235ZM57.2671 39.1266C57.1496 39.7576 56.9307 40.3654 56.619 40.9265C56.3158 41.4691 55.9185 41.967 55.4269 42.4204C54.8719 42.95 54.2064 43.3499 53.4782 43.5913C52.7642 43.8222 51.8533 43.9383 50.7455 43.9398H48.238L47.5431 47.514H44.6149L47.2286 34.0713H52.8577C54.5507 34.0713 55.786 34.5161 56.5638 35.4058C57.3429 36.2926 57.5774 37.5329 57.2671 39.1266ZM51.7528 36.1899H49.7489L48.6524 41.8169H50.4331C51.616 41.8169 52.4958 41.5945 53.0724 41.1496C53.649 40.7034 54.0392 39.9603 54.2432 38.9205C54.4373 37.9218 54.3488 37.217 53.9776 36.8061C53.4209 36.1899 52.8641 36.1899 51.7528 36.1899Z" fill="#333333"/>
</svg>
