<svg width="80" height="80" viewBox="0 0 80 80" fill="none" xmlns="http://www.w3.org/2000/svg">
<rect x="1" y="1" width="78" height="78" rx="39" fill="#E0DDD6"/>
<rect x="1" y="1" width="78" height="78" rx="39" stroke="#333333" stroke-width="2"/>
<path d="M39.5 35.4712C41.6558 35.4712 43.414 37.2618 43.414 39.5C43.414 41.6316 41.6558 43.4435 39.5 43.4435C37.3442 43.4435 35.586 41.6316 35.586 39.5C35.586 37.2618 37.3442 35.4712 39.5 35.4712ZM29.8093 56.5531C31.1279 57.3631 34.0163 56.1267 37.3442 52.9293C36.2558 51.6716 35.1884 50.3074 34.1837 48.8792C32.4972 48.7136 30.8205 48.4575 29.1605 48.1118C28.093 52.6735 28.4907 55.807 29.8093 56.5531ZM31.2953 44.3175L30.6884 43.2304C30.4581 43.8485 30.2279 44.4667 30.0814 45.0636C30.6465 45.1915 31.2744 45.298 31.9233 45.4046L31.2953 44.3175ZM44.9837 42.6975L46.6791 39.5L44.9837 36.3025C44.3558 35.1728 43.686 34.1709 43.0791 33.169C41.9488 33.1051 40.7558 33.1051 39.5 33.1051C38.2442 33.1051 37.0512 33.1051 35.9209 33.169C35.314 34.1709 34.6442 35.1728 34.0163 36.3025L32.3209 39.5L34.0163 42.6975C34.6442 43.8272 35.314 44.8291 35.9209 45.831C37.0512 45.8949 38.2442 45.8949 39.5 45.8949C40.7558 45.8949 41.9488 45.8949 43.0791 45.831C43.686 44.8291 44.3558 43.8272 44.9837 42.6975ZM39.5 28.3729C39.1023 28.8418 38.6837 29.3321 38.2651 29.9076H40.7349C40.3163 29.3321 39.8977 28.8418 39.5 28.3729ZM39.5 50.6271C39.8977 50.1582 40.3163 49.6679 40.7349 49.0924H38.2651C38.6837 49.6679 39.1023 50.1582 39.5 50.6271ZM49.1698 22.4469C47.8721 21.6369 44.9837 22.8732 41.6558 26.0707C42.7442 27.3284 43.8116 28.6926 44.8163 30.1208C46.5326 30.2913 48.2279 30.5471 49.8395 30.8882C50.907 26.3265 50.5093 23.193 49.1698 22.4469ZM47.7047 34.6825L48.3116 35.7696C48.5419 35.1515 48.7721 34.5333 48.9186 33.9364C48.3535 33.8085 47.7256 33.702 47.0767 33.5954L47.7047 34.6825ZM50.7395 19.6545C53.8163 21.4451 54.1512 26.156 52.8535 31.6556C58.1698 33.2543 62 35.8975 62 39.5C62 43.1025 58.1698 45.7457 52.8535 47.3444C54.1512 52.844 53.8163 57.5549 50.7395 59.3455C47.6837 61.1361 43.5186 59.0897 39.5 55.1888C35.4814 59.0897 31.3163 61.1361 28.2395 59.3455C25.1837 57.5549 24.8488 52.844 26.1465 47.3444C20.8302 45.7457 17 43.1025 17 39.5C17 35.8975 20.8302 33.2543 26.1465 31.6556C24.8488 26.156 25.1837 21.4451 28.2395 19.6545C31.3163 17.8639 35.4814 19.9103 39.5 23.8112C43.5186 19.9103 47.6837 17.8639 50.7395 19.6545ZM50.1326 39.5C50.8442 41.0987 51.4721 42.6975 51.9953 44.3175C56.3907 42.9746 58.8605 41.0561 58.8605 39.5C58.8605 37.9439 56.3907 36.0254 51.9953 34.6825C51.4721 36.3025 50.8442 37.9013 50.1326 39.5ZM28.8674 39.5C28.1558 37.9013 27.5279 36.3025 27.0047 34.6825C22.6093 36.0254 20.1395 37.9439 20.1395 39.5C20.1395 41.0561 22.6093 42.9746 27.0047 44.3175C27.5279 42.6975 28.1558 41.0987 28.8674 39.5ZM47.7047 44.3175L47.0767 45.4046C47.7256 45.298 48.3535 45.1915 48.9186 45.0636C48.7721 44.4667 48.5419 43.8485 48.3116 43.2304L47.7047 44.3175ZM41.6558 52.9293C44.9837 56.1267 47.8721 57.3631 49.1698 56.5531C50.5093 55.807 50.907 52.6735 49.8395 48.1118C48.2279 48.4529 46.5326 48.7087 44.8163 48.8792C43.8116 50.3074 42.7442 51.6716 41.6558 52.9293ZM31.2953 34.6825L31.9233 33.5954C31.2744 33.702 30.6465 33.8085 30.0814 33.9364C30.2279 34.5333 30.4581 35.1515 30.6884 35.7696L31.2953 34.6825ZM37.3442 26.0707C34.0163 22.8732 31.1279 21.6369 29.8093 22.4469C28.4907 23.193 28.093 26.3265 29.1605 30.8882C30.8205 30.5425 32.4972 30.2864 34.1837 30.1208C35.1884 28.6926 36.2558 27.3284 37.3442 26.0707Z" fill="#333333"/>
</svg>
