<svg width="80" height="80" viewBox="0 0 80 80" fill="none" xmlns="http://www.w3.org/2000/svg">
<rect x="1" y="1" width="78" height="78" rx="39" fill="#E0DDD6"/>
<rect x="1" y="1" width="78" height="78" rx="39" stroke="#333333" stroke-width="2"/>
<path d="M37.1664 48.4605C37.1223 48.5392 37.1443 48.5042 37.1664 48.4605V48.4605ZM55.4621 42.1172C53.985 42.1167 52.5277 42.4535 51.2026 43.1015C50.7694 42.2339 50.3214 41.4756 50.2479 40.9069C50.1598 40.2434 50.0644 39.8497 50.1672 39.0623C50.27 38.2748 50.7326 37.1593 50.7253 37.0791C50.7179 36.9989 50.6225 36.5979 49.6751 36.5906C48.7278 36.5833 47.9126 36.7729 47.8179 37.0208C47.6506 37.4738 47.5204 37.9395 47.4286 38.4134C47.2597 39.2664 45.5347 42.3141 44.5579 43.9035C44.2348 43.2838 43.9631 42.737 43.9043 42.2995C43.8162 41.636 43.7207 41.2423 43.8236 40.4549C43.9264 39.6674 44.389 38.5519 44.3817 38.4717C44.3743 38.3915 44.2789 37.9905 43.3323 37.9832C42.3856 37.9759 41.5697 38.1655 41.4743 38.4134C41.3788 38.6612 41.276 39.2445 41.085 39.8059C40.8941 40.3674 38.5962 45.4419 37.9948 46.7616C37.6863 47.4324 37.4219 47.972 37.231 48.3365C37.2016 48.3948 37.1796 48.4313 37.1649 48.4605C37.1869 48.424 37.2016 48.3875 37.2016 48.4021C37.0401 48.7156 36.9446 48.8906 36.9446 48.8906V48.8979C36.8197 49.1312 36.6802 49.3427 36.6141 49.3427C36.5701 49.3427 36.4746 48.7302 36.6361 47.8917C36.9813 46.1273 37.7965 43.3859 37.7891 43.2911C37.7818 43.24 37.9433 42.7661 37.253 42.5109C36.5847 42.2703 36.3424 42.6713 36.2836 42.6713C36.2249 42.6713 36.1808 42.8172 36.1808 42.8172C36.1808 42.8172 36.9226 39.7257 34.7569 39.7257C33.4056 39.7257 31.5256 41.1985 30.6017 42.5328C30.0216 42.8463 28.7658 43.5244 27.4439 44.2462C26.9371 44.5233 26.4157 44.8076 25.9237 45.0774C25.887 45.0409 25.8576 45.0045 25.8209 44.968C23.1925 42.1828 18.3397 40.2142 18.5453 36.4739C18.6188 35.1105 19.0961 31.5306 27.8772 27.1851C35.0741 23.6271 40.828 24.6041 41.8187 26.7768C43.2434 29.8755 38.7424 35.6427 31.2685 36.4739C28.4199 36.7874 26.9225 35.6938 26.5479 35.2855C26.1587 34.8553 26.0999 34.8334 25.9531 34.9136C25.7107 35.0449 25.8649 35.424 25.9531 35.65C26.1734 36.226 27.0914 37.2468 28.6549 37.7572C30.0282 38.2019 33.3681 38.4498 37.4065 36.8968C41.9435 35.1615 45.4752 30.3276 44.4397 26.281C43.3851 22.1688 36.5172 20.82 30.023 23.1094C26.1536 24.4728 21.969 26.6164 18.9588 29.4089C15.3831 32.7336 14.811 35.6282 15.046 36.8385C15.8825 41.1329 21.8442 43.9327 24.2302 46.0034C24.1127 46.069 24.0025 46.1273 23.8997 46.1856C22.7034 46.7762 18.1583 49.1385 17.0208 51.6321C15.7356 54.461 17.2337 56.4879 18.2171 56.765C21.2861 57.6107 24.4285 56.0869 26.1168 53.5861C27.8052 51.0852 27.6003 47.8188 26.8218 46.3315C26.8145 46.3096 26.7998 46.295 26.7925 46.2731C27.1009 46.0909 27.4167 45.9086 27.7325 45.7263C28.3413 45.369 28.9361 45.0409 29.4575 44.7566C29.1638 45.544 28.9508 46.4919 28.8407 47.8626C28.7085 49.4666 29.3768 51.5446 30.2433 52.3612C30.6252 52.7184 31.0871 52.7257 31.3736 52.7257C32.387 52.7257 32.8423 51.8945 33.3483 50.903C33.9725 49.6926 34.5233 48.2855 34.5233 48.2855C34.5233 48.2855 33.833 52.0914 35.7204 52.0914C36.41 52.0914 37.1003 51.2092 37.4095 50.7571V50.7644C37.4095 50.7644 37.4241 50.7353 37.4609 50.6769C37.5343 50.5676 37.571 50.502 37.571 50.502V50.4801C37.8501 50.0062 38.4596 48.9198 39.3769 47.1262C40.5666 44.8076 41.7041 41.9131 41.7041 41.9131C41.814 42.5494 41.9661 43.1778 42.1594 43.7942C42.3651 44.4868 42.7984 45.2451 43.1435 45.9815C42.8645 46.3606 42.6955 46.5794 42.6955 46.5794C42.696 46.585 42.6986 46.5902 42.7029 46.5939C42.4826 46.8856 42.2329 47.1991 41.9758 47.5053C41.0366 48.6136 39.9196 49.8822 39.7727 50.2468C39.5964 50.6769 39.6405 50.9977 39.9783 51.2456C40.228 51.4352 40.6686 51.4644 41.1306 51.4279C41.9751 51.3696 42.57 51.1654 42.8564 51.0342C43.3844 50.8462 43.8834 50.5861 44.3391 50.2613C45.2571 49.5906 45.8152 48.6281 45.7638 47.3595C45.7344 46.6596 45.5068 45.9596 45.2277 45.3034C45.3085 45.1868 45.3966 45.0628 45.4774 44.9389C46.9307 42.8317 48.0543 40.519 48.0543 40.519C48.1642 41.1553 48.3163 41.7837 48.5097 42.4001C48.6859 42.9907 49.0303 43.6396 49.3461 44.2739C47.9809 45.3749 47.1364 46.6508 46.8426 47.4893C46.2992 49.0423 46.7251 49.7422 47.5256 49.9026C47.8854 49.9755 48.3995 49.8078 48.7814 49.6474C49.3485 49.4598 49.8833 49.1869 50.3669 48.8381C51.2849 48.1674 52.1728 47.2268 52.114 45.9509C52.092 45.3749 51.9304 44.7989 51.7174 44.2448C52.8704 43.7635 54.3678 43.5011 56.2772 43.7198C60.3663 44.1937 61.1668 46.731 61.0125 47.7882C60.8583 48.8454 59.9991 49.436 59.7127 49.611C59.4263 49.786 59.3381 49.8516 59.3602 49.9828C59.3969 50.1724 59.5291 50.1651 59.7714 50.1214C60.1092 50.063 61.9151 49.261 61.9959 47.2997C62.1134 44.8207 59.7127 42.0939 55.4599 42.1158L55.4621 42.1172ZM23.9438 52.6674C22.5933 54.1329 20.6986 54.687 19.8841 54.2204C19.0102 53.7159 19.3554 51.5592 21.0217 49.9974C22.0351 49.0496 23.3416 48.1746 24.2082 47.6351C24.4065 47.5184 24.6929 47.3435 25.0454 47.132C25.1041 47.0956 25.1335 47.081 25.1335 47.081C25.1996 47.0372 25.273 47.0008 25.3465 46.957C25.9553 49.1735 25.3685 51.1275 23.9438 52.6659V52.6674ZM33.811 46.0034C33.341 47.1481 32.3503 50.0645 31.7481 49.9114C31.234 49.7801 30.9182 47.5564 31.6453 45.369C32.0125 44.2681 32.7909 42.9557 33.2536 42.4453C33.9946 41.6214 34.8097 41.3589 35.0007 41.687C35.2577 42.1172 34.1047 45.2888 33.811 46.0034ZM41.9626 49.8676C41.7643 49.9697 41.5807 50.0353 41.4926 49.9843C41.4265 49.9478 41.5734 49.8093 41.5734 49.8093C41.5734 49.8093 42.5942 48.7229 42.9981 48.2271C43.2331 47.9355 43.5048 47.5928 43.7979 47.2137C43.7979 47.2501 43.8052 47.2866 43.8052 47.3303C43.7957 48.6354 42.5332 49.5177 41.9604 49.8676H41.9626ZM48.2475 48.4459C48.1006 48.3438 48.1226 48.0011 48.6147 46.9366C48.8056 46.521 49.2455 45.8211 50.01 45.1503C50.0965 45.4042 50.1436 45.6698 50.1495 45.9377C50.1422 47.5782 48.9598 48.1907 48.2482 48.4459H48.2475Z" fill="#333333"/>
</svg>
