<svg width="80" height="80" viewBox="0 0 80 80" fill="none" xmlns="http://www.w3.org/2000/svg">
<rect x="1" y="1" width="78" height="78" rx="39" fill="#E0DDD6"/>
<rect x="1" y="1" width="78" height="78" rx="39" stroke="#333333" stroke-width="2"/>
<path d="M61.4639 60.9291L60.5279 60.0415C60.0813 59.4535 59.5825 58.9067 59.0374 58.4077L59.0282 58.4003C58.4779 57.9028 57.9062 57.4296 57.3129 56.981C56.8376 56.6558 56.1842 56.264 55.3526 55.8055C54.6779 55.5075 54.1401 54.9682 53.8455 54.2945L53.8382 54.2762L53.7497 54.2322C54.1403 54.1937 54.4977 54.1221 54.8404 54.0213L54.798 54.0323L55.8482 53.7444C56.283 53.6087 56.786 53.5207 57.3074 53.5005H57.3185C57.8663 53.476 58.3864 53.3911 58.879 53.2456L58.8329 53.2566C59.0712 53.1979 59.3162 53.1313 59.568 53.0567C59.8198 52.9822 60.0354 52.9155 60.2147 52.8568V52.5469C60.0366 52.2817 59.8211 51.9785 59.568 51.6374C59.3328 51.3187 59.0586 51.0305 58.7518 50.7792L58.7426 50.7719C57.9701 50.0921 57.1698 49.4344 56.342 48.7987C55.5655 48.1991 54.7594 47.6385 53.9266 47.119L53.8013 47.0456C53.3207 46.7332 52.8119 46.4661 52.2813 46.248L52.2187 46.226C51.6684 46.0035 51.1261 45.7596 50.5919 45.4943C50.3996 45.4 50.1976 45.3268 49.9894 45.2761L49.9691 45.2724C49.7605 45.2335 49.5717 45.124 49.4348 44.9625L49.433 44.9607C49.1716 44.6153 48.9521 44.2404 48.7789 43.8439L48.7642 43.8072C48.5861 43.3928 48.3933 42.9949 48.1857 42.6134C47.7398 41.7552 47.3087 40.883 46.8923 39.9967C46.4759 39.1103 46.0761 38.2228 45.6929 37.334C45.4264 36.7423 45.1813 36.1512 44.9578 35.5608C44.7317 34.9589 44.4472 34.3804 44.1084 33.8334L44.1324 33.8755C43.4 32.6216 42.5806 31.42 41.6802 30.2795L41.7317 30.3492C40.9092 29.3127 40.0107 28.3381 39.0437 27.4335L39.0289 27.4207C38.0767 26.5337 37.0727 25.7034 36.0221 24.9341L35.9319 24.8699C34.8313 24.0741 33.6276 23.2904 32.3208 22.519C31.7652 22.1965 31.1667 21.9539 30.5428 21.7984L30.4949 21.7874L28.4443 21.2776L27.2855 21.1896C26.8998 21.1602 26.5135 21.1455 26.1266 21.1455C25.866 21.0092 25.6259 20.837 25.4136 20.6339C25.2074 20.4413 24.9903 20.2607 24.7632 20.093L24.7448 20.0801C23.5479 19.3929 22.2875 18.8218 20.9808 18.3747L20.8242 18.3271C20.499 18.1426 20.1364 18.033 19.763 18.0064C19.3897 17.9797 19.0151 18.0367 18.6667 18.173L18.6833 18.1675C18.3404 18.3013 18.0314 18.5088 17.7782 18.775C17.5251 19.0412 17.334 19.3598 17.2186 19.7079L17.2131 19.7262C17.0186 20.1937 16.9556 20.7051 17.0309 21.2055C17.1062 21.7059 17.3169 22.1765 17.6405 22.5667L17.6368 22.5612C18.305 23.4475 18.8172 24.1444 19.1734 24.6517C19.4399 25.0075 19.715 25.3773 19.9988 25.7611C20.2586 26.1059 20.4889 26.5001 20.6749 26.9164L20.6897 26.9549C20.7929 27.1731 20.8831 27.4335 20.9495 27.7013L20.955 27.7306C21.0139 27.9824 21.0882 28.2563 21.1779 28.5521C21.4444 29.2318 21.6969 29.9287 21.9351 30.6426C22.1949 31.422 22.4823 32.0821 22.8158 32.7111L22.7808 32.6378C22.9589 32.9629 23.1376 33.2808 23.3169 33.5913C23.4963 33.9018 23.6891 34.205 23.8955 34.5009C24.0136 34.6756 24.1644 34.8263 24.3395 34.9446L24.345 34.9483C24.4379 35.0136 24.5143 35.0994 24.5683 35.1989C24.6223 35.2985 24.6525 35.4092 24.6564 35.5223C24.4373 35.8428 24.3001 36.2135 24.2566 36.5987L24.2547 36.6097C24.199 37.042 24.1047 37.4685 23.9728 37.8842L23.9876 37.8291C23.5541 39.1498 23.3358 40.531 23.3409 41.9203C23.3409 42.3934 23.3655 42.8598 23.4146 43.3194L23.4091 43.2626C23.5196 45.0193 24.0521 46.633 24.9051 48.0304L24.8793 47.9845C25.2423 48.5255 25.631 48.9968 26.0603 49.4277C26.3097 49.7069 26.6456 49.8952 27.0148 49.9626C27.384 50.0301 27.7652 49.9728 28.098 49.8L28.0888 49.8036C28.4075 49.6908 28.6855 49.4865 28.8878 49.2167C29.0901 48.9468 29.2076 48.6233 29.2255 48.2871V48.2834C29.314 47.4142 29.4466 46.6367 29.629 45.8775L29.6051 46.0004C29.6515 45.8767 29.6753 45.7456 29.6751 45.6135L29.6714 45.531V45.5346C29.6566 45.4014 29.7383 45.2754 29.9164 45.1569V45.2449C30.0945 45.6593 30.28 46.0731 30.4728 46.4863C30.6657 46.8996 30.8659 47.3134 31.0735 47.7278C31.617 48.5512 32.1936 49.27 32.8274 49.932L32.8219 49.9265C33.452 50.6045 34.1475 51.2193 34.8983 51.7621L34.9388 51.7896C35.3269 52.0854 35.6745 52.4082 35.9816 52.7578L35.989 52.7652C36.2825 53.1075 36.6264 53.385 37.0207 53.5977L37.0391 53.6069V53.5628H37.1276C37.0578 53.407 36.9421 53.276 36.7959 53.1869L36.7923 53.1851C36.6576 53.1101 36.5277 53.0268 36.4035 52.9357L36.4127 52.9412C36.1462 52.6759 35.8711 52.3801 35.5873 52.0537C35.3036 51.7272 35.0438 51.4167 34.808 51.1221C34.184 50.2639 33.5889 49.3672 33.0227 48.432C32.4565 47.4968 31.9216 46.5462 31.418 45.5805C31.1797 45.1074 30.9494 44.6196 30.7271 44.1171C30.5048 43.6147 30.2892 43.1269 30.0804 42.6538C29.986 42.4615 29.9261 42.2542 29.9035 42.0413V42.0321C29.8982 41.9315 29.8669 41.8339 29.8127 41.7488C29.7585 41.6637 29.6832 41.5939 29.594 41.5462L29.5903 41.5443C29.3787 41.9048 29.1265 42.2401 28.8386 42.5438L28.8405 42.5419C28.5453 42.8529 28.3071 43.2128 28.1367 43.6055L28.1275 43.6293C27.8523 44.3068 27.6731 45.019 27.595 45.7455L27.5913 45.7803C27.5029 46.564 27.4138 47.3696 27.3242 48.1973L27.2357 48.2413L27.1915 48.2853C26.9611 48.2386 26.744 48.1415 26.556 48.001C26.368 47.8605 26.2138 47.6801 26.1045 47.4729L26.1008 47.4637C25.8773 47.0346 25.6771 46.6129 25.5002 46.1984C25.0193 44.9411 24.7558 43.6118 24.7209 42.2669V42.2503C24.6244 40.813 24.8032 39.3706 25.2478 37.9997L25.2257 38.0804C25.3141 37.7552 25.5069 37.2075 25.8042 36.4373C26.1014 35.6671 26.161 35.1347 25.9829 34.8401C25.8929 34.5495 25.7239 34.2893 25.4947 34.0883L25.4928 34.0864C25.2711 33.8982 25.0648 33.6928 24.8756 33.4721L24.8701 33.4648C24.6625 33.1665 24.4623 32.8486 24.2695 32.5112C24.0766 32.1738 23.9059 31.8413 23.7573 31.5137C23.4123 30.7064 23.1206 29.8776 22.884 29.0326L22.8434 28.8694C22.5826 27.9254 22.2462 27.0037 21.8375 26.1132L21.8854 26.2306C21.6951 25.795 21.4539 25.3832 21.1669 25.0038L21.1779 25.0185C20.8782 24.6199 20.6105 24.2428 20.3746 23.887C20.0749 23.5032 19.7777 23.1333 19.4829 22.7776C19.1755 22.4074 18.9122 22.0032 18.698 21.5728L18.6815 21.5361C18.5867 21.3448 18.5132 21.1437 18.4622 20.9365L18.4585 20.9163C18.4261 20.8123 18.4174 20.7023 18.433 20.5945C18.4486 20.4866 18.4882 20.3836 18.5488 20.2928L18.547 20.2965C18.5664 20.1973 18.6129 20.1053 18.6815 20.0306C18.7556 19.9637 18.8467 19.918 18.9449 19.8986H18.9486C19.094 19.8048 19.2611 19.7496 19.434 19.7383C19.6069 19.7271 19.7797 19.7602 19.9361 19.8344L19.9306 19.8326C20.3341 19.9463 20.6602 20.06 20.9789 20.1902L20.9126 20.1663C21.4764 20.4035 21.9966 20.6327 22.4731 20.854C23.0222 21.1144 23.4901 21.3894 23.9323 21.6957L23.8991 21.6737C24.1374 21.8216 24.3751 21.9842 24.6121 22.1615C24.8492 22.3387 25.1016 22.5166 25.3694 22.6951H25.9939C26.4693 22.6951 26.9741 22.7177 27.5084 22.7629C28.0482 22.8051 28.5475 22.906 29.0229 23.0637L28.9786 23.0508C29.8648 23.3131 30.6257 23.623 31.348 23.9952L31.2724 23.9604C32.0008 24.3296 32.6917 24.7214 33.3451 25.1358C34.4303 25.8088 35.3681 26.4983 36.2506 27.252L36.2193 27.2263C37.1405 28.0112 37.9769 28.8162 38.7618 29.6671L38.7802 29.6891C39.5467 30.5216 40.2781 31.4256 40.9469 32.3737L41.004 32.4599C41.6194 33.3254 42.2402 34.3267 42.7985 35.3646L42.8759 35.5204C43.0387 35.8394 43.1827 36.1676 43.307 36.5033L43.3273 36.5638C43.4464 36.9037 43.5797 37.2521 43.7271 37.6091C44.0538 38.3487 44.4038 39.0951 44.7772 39.8481C45.1506 40.6012 45.5007 41.3335 45.8274 42.045L46.8076 44.174C47.1521 44.9185 47.5371 45.5603 47.9848 46.1526L47.9646 46.1251C48.3386 46.523 48.8379 46.8018 49.398 46.8989L49.4127 46.9008C50.0907 47.0695 50.6619 47.2602 51.2146 47.4857L51.128 47.4546C51.3914 47.5738 51.7305 47.7003 52.0787 47.8122L52.1524 47.8323C52.543 47.9515 52.882 48.1092 53.1933 48.3073L53.1767 48.2981C53.7792 48.6337 54.2896 48.9638 54.7759 49.3232L54.7373 49.2957C55.2421 49.6649 55.7469 50.0133 56.2517 50.3409C56.49 50.5182 56.8898 50.7767 57.4511 51.1166C58.0124 51.4565 58.3097 51.7743 58.3428 52.0702C57.214 52.0295 56.0838 52.0829 54.9639 52.2297L55.067 52.2187C54.1318 52.3404 53.2161 52.5807 52.3421 52.9339L52.4158 52.9082C52.1842 53.0056 51.9451 53.0847 51.701 53.1447L51.666 53.1521C51.5388 53.1696 51.4213 53.2293 51.3324 53.3214C51.2435 53.4136 51.1883 53.5329 51.1759 53.66C51.2901 53.8006 51.3779 53.9614 51.4394 54.1386L51.443 54.1497C51.5045 54.3343 51.5812 54.5005 51.6733 54.6484L51.6678 54.6374C51.8871 55.0244 52.1229 55.3581 52.3882 55.6662L52.3808 55.657C52.6412 55.9749 52.9335 56.2524 53.2578 56.4895L53.2707 56.4987C53.5704 56.7359 53.8824 56.9798 54.2066 57.2304C54.5033 57.4614 54.8386 57.6888 55.1868 57.8942L55.231 57.918C55.7543 58.2371 56.3623 58.5415 56.996 58.7964L57.0808 58.8258C57.7698 59.1008 58.3613 59.4199 58.9103 59.7995L58.8808 59.7793C59.2382 59.9859 59.5944 60.2151 59.9494 60.467C60.3044 60.7188 60.6458 60.9627 60.9738 61.1986C61.1089 61.3307 61.2262 61.4768 61.3257 61.6369L61.3312 61.6461C61.5008 61.8416 61.737 61.9676 61.9945 62H62V61.912C61.8355 61.7908 61.7162 61.6185 61.661 61.4224L61.6592 61.415C61.6156 61.2389 61.5461 61.0702 61.4528 60.9144L61.4565 60.9217L61.4639 60.9291ZM27.2394 25.7116C27.0011 25.7116 26.7782 25.719 26.5706 25.7336C26.3681 25.7469 26.1682 25.7857 25.9755 25.8492L25.9921 25.8437V25.8877H26.0805C26.1997 26.0649 26.3495 26.2642 26.5301 26.4855C26.7106 26.7067 26.874 26.9213 27.0202 27.1291L27.7332 28.5925L27.8216 28.5485C28.0287 28.3994 28.1896 28.1955 28.2859 27.9598L28.2896 27.9507C28.3854 27.6958 28.4407 27.3987 28.4407 27.0906L28.4388 26.9916V26.9971C28.3551 26.9163 28.2876 26.8205 28.2398 26.7147L28.238 26.7092L28.0888 26.3754C27.9948 26.2222 27.8577 26.0998 27.6945 26.0234L27.689 26.0215C27.5245 25.9411 27.3729 25.8366 27.2394 25.7116Z" fill="#333333"/>
</svg>
